<?xml version="1.0"?>
<svg xmlns="http://www.w3.org/2000/svg" xmlns:xlink="http://www.w3.org/1999/xlink" xmlns:svgjs="http://svgjs.com/svgjs" version="1.1" width="40" height="40" x="0" y="0" viewBox="0 0 512 512" style="enable-background:new 0 0 512 512" xml:space="preserve" class=""><g><g xmlns="http://www.w3.org/2000/svg"><path d="m414.44 20.604c-13.915 0-25.878 9.259-31.162 22.525-5.284-13.266-17.247-22.525-31.162-22.525-18.807 0-34.053 16.912-34.053 37.775 0 47.753 65.215 74.124 65.215 74.124s64.572-26.727 65.215-74.124c.283-20.861-15.246-37.775-34.053-37.775z" fill="#a77d7d" data-original="#ff5492" style="" class=""/><g><path d="m47.374 376.75c-6.84 0-12.721 4.551-15.318 11.072-2.597-6.521-8.478-11.072-15.318-11.072-9.244 0-16.738 8.314-16.738 18.569 0 23.473 32.057 36.436 32.057 36.436s31.741-13.138 32.057-36.436c.138-10.254-7.495-18.569-16.74-18.569z" fill="#a77d7d" data-original="#ff91c1" style="" class=""/><path d="m149.563 430.88c-10.087 0-18.76 6.712-22.59 16.329-3.83-9.617-12.503-16.329-22.59-16.329-13.634 0-24.686 12.26-24.686 27.384 0 34.618 47.277 53.735 47.277 53.735s46.811-19.376 47.277-53.735c.204-15.122-11.054-27.384-24.688-27.384z" fill="#a77d7d" data-original="#ff5492" style="" class=""/></g><g><g><g><path d="m36.428 233.145 132.59-30.905 127.822 30.905-24.647 89.353c-3.697 13.403-15.889 22.687-29.793 22.687h-151.532c-13.904 0-26.096-9.284-29.793-22.687z" fill="#a77d7d" data-original="#e0efff" style="" class=""/><path d="m296.84 233.145c18.913 0 34.245-15.332 34.245-34.245s-15.332-34.245-34.245-34.245c-.079 0-.156.005-.235.006-.237-71.483-58.253-129.359-129.791-129.359s-129.554 57.876-129.791 129.359c-.079-.001-.156-.006-.235-.006-18.913 0-34.246 15.332-34.246 34.245s15.332 34.245 34.246 34.245z" fill="#a77d7d" data-original="#ba7652" style="" class=""/><path d="m296.84 164.654c-.079 0-.156.006-.235.006-.237-71.483-58.253-129.359-129.791-129.359-7.013 0-13.893.564-20.604 1.635 61.751 9.851 108.974 63.249 109.187 127.724.079-.001.156-.006.235-.006 18.913 0 34.245 15.332 34.245 34.245s-15.332 34.245-34.245 34.245h41.207c18.913 0 34.245-15.332 34.245-34.245s-15.33-34.245-34.244-34.245z" fill="#a77d7d" data-original="#b06a45" style="" class=""/></g><g><g><path d="m94.603 6.445c-5.915-3.015-13.998.483-20.42-.528-6.486-1.022-13.101-6.819-19.587-5.797-6.422 1.012-10.927 8.538-16.842 11.553-5.707 2.91-14.469 2.063-19.244 6.838s-3.928 13.536-6.837 19.243c-3.015 5.915-10.541 10.42-11.553 16.842-1.022 6.486 4.775 13.101 5.796 19.587 1.012 6.422-2.487 14.505.528 20.42 2.909 5.707 11.44 7.654 16.215 12.429s6.722 13.306 12.429 16.215c5.915 3.015 13.998-.483 20.42.528 6.486 1.022 13.101 6.819 19.587 5.797.242-.038.475-.103.712-.159 8.668-25.095 28.511-44.938 53.606-53.606.056-.236.12-.47.158-.711 1.022-6.486-4.775-13.101-5.797-19.587-1.012-6.422 2.487-14.505-.528-20.42-2.909-5.707-11.44-7.654-16.215-12.429-4.774-4.774-6.721-13.305-12.428-16.215z" fill="#a77d7d" data-original="#fff0ca" style="" class=""/></g><path d="m123.775 55.51c-1.012-6.422 2.487-14.505-.528-20.42-2.909-5.707-11.44-7.654-16.215-12.429s-6.721-13.305-12.429-16.215c-5.915-3.015-13.998.483-20.42-.528-6.486-1.023-13.101-6.819-19.587-5.798-3.248.512-6.005 2.69-8.703 5.108 2.674-.134 5.246.067 7.503 1.217 5.707 2.909 7.654 11.44 12.429 16.215s13.306 6.722 16.215 12.429c3.015 5.915-.483 13.999.528 20.42 1.022 6.486 6.818 13.101 5.797 19.587-.038.241-.103.475-.158.711-23.223 8.021-41.941 25.617-51.475 48.084 5.711 1.764 12.931-1.038 18.777-.117 6.486 1.022 13.101 6.819 19.587 5.797.242-.038.475-.103.712-.159 8.668-25.095 28.511-44.938 53.606-53.606.056-.236.12-.47.158-.711 1.022-6.484-4.775-13.1-5.797-19.585z" fill="#a77d7d" data-original="#fee9ad" style="" class=""/><path d="m71.049 165.494c-4.268 0-7.726-3.459-7.726-7.726 0-52.077 42.367-94.445 94.445-94.445 4.268 0 7.726 3.459 7.726 7.726s-3.459 7.726-7.726 7.726c-43.556 0-78.992 35.436-78.992 78.992 0 4.268-3.459 7.727-7.727 7.727z" fill="#a77d7d" data-original="#8a5030" style="" class=""/></g></g><g><g><path d="m475.572 399.96-130.402-30.906-130.01 30.906 24.647 89.353c3.697 13.403 15.889 22.687 29.793 22.687h151.532c13.904 0 26.096-9.284 29.793-22.687z" fill="#a77d7d" data-original="#e0efff" style="" class=""/><path d="m215.16 399.96c-18.913 0-34.245-15.332-34.245-34.245s15.332-34.245 34.245-34.245c.079 0 .156.005.235.006.237-71.483 58.253-129.359 129.791-129.359s129.554 57.876 129.791 129.359c.079-.001.156-.006.235-.006 18.913 0 34.246 15.332 34.246 34.245s-15.332 34.245-34.246 34.245z" fill="#a77d7d" data-original="#ff91c1" style="" class=""/><path d="m475.212 331.469c-.079 0-.156.005-.235.006-.237-71.483-58.253-129.359-129.791-129.359-7.013 0-13.892.564-20.604 1.635 61.751 9.851 108.974 63.248 109.187 127.724.079-.001.156-.006.235-.006 18.913 0 34.245 15.332 34.245 34.245s-15.332 34.245-34.245 34.245h41.207c18.913 0 34.245-15.332 34.245-34.245.001-18.913-15.331-34.245-34.244-34.245z" fill="#a77d7d" data-original="#ff7db6" style="" class=""/><path d="m434.364 399.96-24.647 89.353c-3.697 13.403-15.889 22.687-29.793 22.687h41.207c13.904 0 26.096-9.284 29.793-22.687l24.647-89.353z" fill="#a77d7d" data-original="#d4e8ff" style="" class=""/></g><g><g><path d="m417.397 173.26c5.915-3.015 13.999.483 20.42-.528 6.486-1.022 13.101-6.819 19.587-5.797 6.422 1.012 10.927 8.538 16.842 11.553 5.707 2.91 14.469 2.063 19.244 6.838s3.928 13.536 6.837 19.243c3.015 5.915 10.541 10.42 11.553 16.842 1.022 6.486-4.775 13.101-5.796 19.587-1.012 6.422 2.487 14.505-.528 20.42-2.909 5.707-11.44 7.654-16.215 12.429s-6.722 13.306-12.429 16.215c-5.915 3.015-13.998-.483-20.42.528-6.486 1.022-13.101 6.819-19.587 5.797-.242-.038-.475-.103-.712-.159-8.668-25.095-28.511-44.938-53.606-53.606-.056-.236-.12-.47-.158-.711-1.022-6.486 4.775-13.101 5.797-19.587 1.012-6.422-2.487-14.505.528-20.42 2.909-5.707 11.44-7.654 16.215-12.429 4.774-4.775 6.721-13.306 12.428-16.215z" fill="#a77d7d" data-original="#fff0ca" style="" class=""/></g><path d="m506.083 240.997c1.022-6.486 6.818-13.101 5.797-19.587-1.012-6.422-8.538-10.927-11.553-16.842-2.909-5.707-2.063-14.469-6.837-19.243-4.775-4.775-13.536-3.928-19.243-6.838-5.915-3.015-10.42-10.541-16.842-11.553-6.486-1.022-13.101 4.775-19.587 5.797-3.972.626-8.58-.472-12.918-.688 2.636 2.363 5.216 4.954 8.139 6.444 5.707 2.91 14.469 2.063 19.243 6.838 4.775 4.775 3.928 13.536 6.837 19.243 3.015 5.915 10.541 10.42 11.553 16.842 1.022 6.486-4.775 13.101-5.797 19.587-1.012 6.422 2.487 14.505-.528 20.42-2.909 5.707-11.44 7.654-16.215 12.429s-6.722 13.306-12.429 16.215c-.529.27-1.081.472-1.642.645.768 1.811 1.485 3.65 2.131 5.521.236.056.47.12.712.158 6.486 1.022 13.101-4.775 19.587-5.797 6.421-1.012 14.505 2.487 20.42-.528 5.707-2.909 7.654-11.44 12.429-16.215s13.306-6.722 16.215-12.429c3.015-5.914-.484-13.997.528-20.419z" fill="#a77d7d" data-original="#fee9ad" style="" class=""/><path d="m440.951 332.309c-4.268 0-7.726-3.459-7.726-7.726 0-43.556-35.436-78.992-78.992-78.992-4.268 0-7.726-3.459-7.726-7.726s3.459-7.726 7.726-7.726c52.077 0 94.445 42.368 94.445 94.445-.001 4.266-3.46 7.725-7.727 7.725z" fill="#a77d7d" data-original="#ff5492" style="" class=""/></g></g></g></g></g></svg>
